<svg width="45" height="30" viewBox="0 0 45 30" fill="none" xmlns="http://www.w3.org/2000/svg">
<path fill-rule="evenodd" clip-rule="evenodd" d="M42.9111 11.6044L35.2129 7.15965V27.8051H44.2129V29.8051H0.212891V27.8051H4.21289V15.0858L0.485071 16.0177L0 14.0774L21.0896 8.80505H24.2119C23.8673 9.62247 23.6383 10.4844 23.5316 11.3637L23.0495 15.3386L28.2129 12.3574V27.8051H33.2129V7.16087L25.5166 11.6045C25.7383 9.77684 26.6279 8.04857 28.082 6.80504H23.9629C25.3311 4.98338 27.5098 3.80504 29.9639 3.80504C30.1807 3.80504 30.3965 3.81431 30.6084 3.8325L25.0166 0.603865C27.1123 -0.289568 29.5879 -0.220842 31.7129 1.00609C32.752 1.60582 33.5938 2.41673 34.2139 3.35325C34.834 2.41673 35.6748 1.60582 36.7139 1.00609C38.8389 -0.220842 41.3154 -0.289568 43.4111 0.603865L37.8184 3.8325C38.0312 3.81431 38.2471 3.80504 38.4648 3.80504C40.918 3.80504 43.0967 4.98338 44.4648 6.80504H40.3447C41.7998 8.04857 42.6895 9.77684 42.9111 11.6044ZM24.2129 27.8051V17.8051H18.2129V27.8051H24.2129ZM13.2129 19.8051C13.2129 20.9096 12.3175 21.8051 11.2129 21.8051C10.1083 21.8051 9.21289 20.9096 9.21289 19.8051C9.21289 18.7005 10.1083 17.8051 11.2129 17.8051C12.3175 17.8051 13.2129 18.7005 13.2129 19.8051Z" fill="#A3BFFA"/>
</svg>
